# xmcd
#
# Track frame offsets:
#	150
#	19857
#	38968
#	59115
#	78556
#	105386
#	121695
#	138843
#
# Disc length: 2090 seconds
#
# Revision: 1
# Processed by: cddbd v1.5.1PL2 Copyright (c) Steve Scherf et al.
# Submitted via: CDmax 2.0
#
DISCID=64082808
DTITLE=Shahram Solati - Halite
DYEAR=2004
DGENRE=Ethnic
TTITLE0=Halite
TTITLE1=Salam
TTITLE2=Ye Rize
TTITLE3=Tehran Nights
TTITLE4=Ehsas
TTITLE5=Base Base
TTITLE6=Aziz Tarien
TTITLE7=Parchame Iran
EXTD=*®Ramin Mohammadi*
EXTT0=
EXTT1=
EXTT2=
EXTT3=
EXTT4=
EXTT5=
EXTT6=
EXTT7=
PLAYORDER=
